<svg width="171" height="38" xmlns="http://www.w3.org/2000/svg" xmlns:xlink="http://www.w3.org/1999/xlink" enable-background="new 0 0 171 132">
 <defs>
  <linearGradient id="b">
   <stop stop-color="#197855" offset="0"/>
   <stop stop-color="#1bc48c" offset="0.5497"/>
  </linearGradient>
  <linearGradient y2="0.05378" y1="1.15875" xlink:href="#b" x2="1.18299" x1="-0.06535" id="d"/>
 </defs>
 <g>
  <title>Layer 1</title>
  <path id="svg_28" stroke-width="6" stroke-linejoin="round" stroke-linecap="round" stroke="url(#d)" fill="none" d="m3.24184,34.37356l8.9,-6.9l7,0c4.4,0 8,-3.6 8,-8l0,-4"/>
  <path id="svg_29" stroke-width="6" stroke-linejoin="round" stroke-linecap="round" stroke="#2bc48c" fill="none" d="m27.14184,15.47356l0,-4c0,-4.4 -3.6,-8 -8,-8l-8,0c-4.4,0 -8,3.6 -8,8l0,23"/>
  <path id="svg_30" fill="#444f56" d="m46.64184,10.17356c-1.9,0 -3.3,0.7 -4.2,1.9l0,-1.5l-3.3,0l0,18.1l3.3,0l0,-6.7c0.9,1.2 2.3,1.9 4.2,1.9c3.5,0 6.3,-3 6.3,-6.8s-2.8,-6.9 -6.3,-6.9zm-0.6,10.5c-2,0 -3.5,-1.4 -3.6,-3.4l0,-0.5c0.1,-2 1.6,-3.4 3.6,-3.4c2.1,0 3.6,1.5 3.6,3.6c0,2.2 -1.5,3.7 -3.6,3.7z"/>
  <path id="svg_31" fill="#444f56" d="m112.34184,10.17356c-4.1,0 -6.9,3 -6.9,6.8s2.7,6.8 6.9,6.8c2.9,0 5.2,-1.5 6,-4.1l-3.3,0c-0.4,0.7 -1.5,1.3 -2.7,1.3c-1.7,0 -3.1,-0.9 -3.5,-2.7l9.7,0c0.1,-0.4 0.1,-0.9 0.1,-1.4c0.1,-3.6 -2.5,-6.7 -6.3,-6.7zm-3.4,5.6c0.4,-1.6 1.6,-2.6 3.4,-2.6c1.4,0 2.7,0.7 3.1,2.6l-6.5,0z"/>
  <path id="svg_32" fill="#444f56" d="m129.94184,12.07356c-0.9,-1.2 -2.3,-1.9 -4.2,-1.9c-3.4,0 -6.3,3 -6.3,6.8s2.8,6.8 6.3,6.8c1.9,0 3.3,-0.7 4.2,-1.9l0,1.6l3.3,0l0,-12.9l-3.3,0l0,1.5zm-3.5,8.6c-2,0 -3.6,-1.5 -3.6,-3.6c0,-2.2 1.5,-3.6 3.6,-3.6s3.6,1.5 3.6,3.6c-0.1,2.1 -1.6,3.6 -3.6,3.6z"/>
  <path id="svg_33" fill="#444f56" d="m144.84184,12.07356c-0.9,-1.2 -2.3,-1.9 -4.2,-1.9c-3.4,0 -6.3,3 -6.3,6.8s2.8,6.8 6.3,6.8c1.9,0 3.3,-0.7 4.2,-1.9l0,1.6l3.3,0l0,-19l-3.3,0l0,7.6zm-3.6,8.6c-2,0 -3.6,-1.5 -3.6,-3.6c0,-2.2 1.5,-3.6 3.6,-3.6s3.6,1.5 3.6,3.6s-1.5,3.6 -3.6,3.6z"/>
  <path id="svg_34" fill="#444f56" d="m156.04184,10.17356c-4.1,0 -6.9,3 -6.9,6.8s2.7,6.8 6.9,6.8c2.9,0 5.2,-1.5 6,-4.1l-3.3,0c-0.4,0.7 -1.5,1.3 -2.7,1.3c-1.7,0 -3.1,-0.9 -3.5,-2.7l9.7,0c0.1,-0.4 0.1,-0.9 0.1,-1.4c0.2,-3.6 -2.5,-6.7 -6.3,-6.7zm-3.4,5.6c0.4,-1.6 1.6,-2.6 3.4,-2.6c1.4,0 2.7,0.7 3.1,2.6l-6.5,0z"/>
  <path id="svg_35" fill="#444f56" d="m80.54184,20.87356c-0.9,0 -1.8,-0.2 -2.1,-1.2l-3.3,0c0.2,2.9 2.7,4.1 5.3,4.1c2.7,0 5.1,-1.4 5.1,-4.1c0,-5 -7,-3.2 -7,-5.4c0,-0.7 0.7,-1.2 1.7,-1.2c0.9,0 1.6,0.5 1.7,1.3l3.3,0c-0.1,-2.9 -2.4,-4.3 -5,-4.3c-2.7,0 -5.1,1.4 -5.1,4.1c0,5 7,3.2 7,5.4c0.2,0.9 -0.5,1.3 -1.6,1.3z"/>
  <path id="svg_36" fill="#444f56" d="m91.64184,20.87356c-0.9,0 -1.8,-0.2 -2.1,-1.2l-3.3,0c0.2,2.9 2.7,4.1 5.3,4.1c2.7,0 5.1,-1.4 5.1,-4.1c0,-5 -7,-3.2 -7,-5.4c0,-0.7 0.7,-1.2 1.7,-1.2c0.9,0 1.6,0.5 1.7,1.3l3.3,0c-0.1,-2.9 -2.4,-4.3 -5,-4.3c-2.7,0 -5.1,1.4 -5.1,4.1c0,5 7,3.2 7,5.4c0.1,0.9 -0.6,1.3 -1.6,1.3z"/>
  <path id="svg_37" fill="#444f56" d="m105.64184,10.27356c-1.9,0 -3.3,0.7 -4.2,1.8l0,-1.5l-3.3,0l0,12.9l3.3,0l0,-6.5c0,-2.4 1.8,-3.8 4.2,-3.5l0,-3.2z"/>
  <path id="svg_38" fill="#444f56" d="m171.14184,10.27356c-1.9,0 -3.3,0.7 -4.2,1.8l0,-1.5l-3.3,0l0,12.9l3.3,0l0,-6.5c0,-2.4 1.8,-3.8 4.2,-3.5l0,-3.2z"/>
  <path id="svg_39" fill="#444f56" d="m61.54184,10.27356c-1.9,0 -3.3,0.7 -4.2,1.8l0,-1.5l-3.3,0l0,12.9l3.3,0l0,-6.5c0,-2.4 1.8,-3.8 4.2,-3.5l0,-3.2z"/>
  <path id="svg_40" fill="#444f56" d="m68.24184,10.17356c-4.1,0 -6.9,3 -6.9,6.8s2.7,6.8 6.9,6.8c2.9,0 5.2,-1.5 6,-4.1l-3.3,0c-0.4,0.7 -1.5,1.3 -2.7,1.3c-1.7,0 -3.1,-0.9 -3.5,-2.7l9.7,0c0.1,-0.4 0.1,-0.9 0.1,-1.4c0.1,-3.6 -2.5,-6.7 -6.3,-6.7zm-3.5,5.6c0.4,-1.6 1.6,-2.6 3.4,-2.6c1.4,0 2.7,0.7 3.1,2.6l-6.5,0z"/>
 </g>
</svg>