<svg xmlns="http://www.w3.org/2000/svg" xmlns:xlink="http://www.w3.org/1999/xlink" version="1.1" width="1000" height="1000" viewBox="0 0 1000 1000" xml:space="preserve">
<desc>Created with Fabric.js 3.5.0</desc>
<defs>
</defs>
<rect x="0" y="0" width="100%" height="100%" fill="#ffffff"/>
<g transform="matrix(0.6325 0 0 0.6325 500.011 570.6388)" id="842927">
<g style="">
		<g transform="matrix(3.8436 0 0 3.8436 -227.1588 10.954)" id="68793">
<path style="stroke: none; stroke-width: 1; stroke-dasharray: none; stroke-linecap: butt; stroke-dashoffset: 0; stroke-linejoin: miter; stroke-miterlimit: 4; is-custom-font: none; font-file-url: none; fill: rgb(68,79,86); fill-rule: nonzero; opacity: 0.67;" transform=" translate(-45.9, -24.95)" d="m 46.5 15.7 c -1.9 0 -3.3 0.7 -4.2 1.9 v -1.5 h -3.3 v 18.1 h 3.3 v -6.7 c 0.9 1.2 2.3 1.9 4.2 1.9 c 3.5 0 6.3 -3 6.3 -6.8 s -2.8 -6.9 -6.3 -6.9 z m -0.6 10.5 c -2 0 -3.5 -1.4 -3.6 -3.4 v -0.5 c 0.1 -2 1.6 -3.4 3.6 -3.4 c 2.1 0 3.6 1.5 3.6 3.6 c 0 2.2 -1.5 3.7 -3.6 3.7 z" stroke-linecap="round"/>
</g>
		<g transform="matrix(3.8436 0 0 3.8436 -181.996 1.1529)" id="950280">
<path style="stroke: none; stroke-width: 1; stroke-dasharray: none; stroke-linecap: butt; stroke-dashoffset: 0; stroke-linejoin: miter; stroke-miterlimit: 4; is-custom-font: none; font-file-url: none; fill: rgb(68,79,86); fill-rule: nonzero; opacity: 0.67;" transform=" translate(-57.65, -22.4)" d="m 61.4 15.8 c -1.9 0 -3.3 0.7 -4.2 1.8 v -1.5 h -3.3 v 12.9 h 3.3 v -6.5 c 0 -2.4 1.8 -3.8 4.2 -3.5 z" stroke-linecap="round"/>
</g>
		<g transform="matrix(3.8436 0 0 3.8436 -142.9779 1.5372)" id="711640">
<path style="stroke: none; stroke-width: 1; stroke-dasharray: none; stroke-linecap: butt; stroke-dashoffset: 0; stroke-linejoin: miter; stroke-miterlimit: 4; is-custom-font: none; font-file-url: none; fill: rgb(68,79,86); fill-rule: nonzero; opacity: 0.67;" transform=" translate(-67.8014, -22.5)" d="m 68.1 15.7 c -4.1 0 -6.9 3 -6.9 6.8 s 2.7 6.8 6.9 6.8 c 2.9 0 5.2 -1.5 6 -4.1 h -3.3 c -0.4 0.7 -1.5 1.3 -2.7 1.3 c -1.7 0 -3.1 -0.9 -3.5 -2.7 h 9.7 c 0.1 -0.4 0.1 -0.9 0.1 -1.4 c 0.1 -3.6 -2.5 -6.7 -6.3 -6.7 z m -3.5 5.6 c 0.4 -1.6 1.6 -2.6 3.4 -2.6 c 1.4 0 2.7 0.7 3.1 2.6 z" stroke-linecap="round"/>
</g>
		<g transform="matrix(3.8436 0 0 3.8436 -95.3222 1.3451)" id="926424">
<path style="stroke: none; stroke-width: 1; stroke-dasharray: none; stroke-linecap: butt; stroke-dashoffset: 0; stroke-linejoin: miter; stroke-miterlimit: 4; is-custom-font: none; font-file-url: none; fill: rgb(68,79,86); fill-rule: nonzero; opacity: 0.67;" transform=" translate(-80.2, -22.45)" d="m 80.4 26.4 c -0.9 0 -1.8 -0.2 -2.1 -1.2 h -3.3 c 0.2 2.9 2.7 4.1 5.3 4.1 c 2.7 0 5.1 -1.4 5.1 -4.1 c 0 -5 -7 -3.2 -7 -5.4 c 0 -0.7 0.7 -1.2 1.7 -1.2 c 0.9 0 1.6 0.5 1.7 1.3 h 3.3 c -0.1 -2.9 -2.4 -4.3 -5 -4.3 c -2.7 0 -5.1 1.4 -5.1 4.1 c 0 5 7 3.2 7 5.4 c 0.2 0.9 -0.5 1.3 -1.6 1.3 z" stroke-linecap="round"/>
</g>
		<g transform="matrix(3.8436 0 0 3.8436 -52.6579 1.3451)" id="879122">
<path style="stroke: none; stroke-width: 1; stroke-dasharray: none; stroke-linecap: butt; stroke-dashoffset: 0; stroke-linejoin: miter; stroke-miterlimit: 4; is-custom-font: none; font-file-url: none; fill: rgb(68,79,86); fill-rule: nonzero; opacity: 0.67;" transform=" translate(-91.3, -22.45)" d="m 91.5 26.4 c -0.9 0 -1.8 -0.2 -2.1 -1.2 h -3.3 c 0.2 2.9 2.7 4.1 5.3 4.1 c 2.7 0 5.1 -1.4 5.1 -4.1 c 0 -5 -7 -3.2 -7 -5.4 c 0 -0.7 0.7 -1.2 1.7 -1.2 c 0.9 0 1.6 0.5 1.7 1.3 h 3.3 c -0.1 -2.9 -2.4 -4.3 -5 -4.3 c -2.7 0 -5.1 1.4 -5.1 4.1 c 0 5 7 3.2 7 5.4 c 0.1 0.9 -0.6 1.3 -1.6 1.3 z" stroke-linecap="round"/>
</g>
		<g transform="matrix(3.8436 0 0 3.8436 -12.4919 1.1529)" id="181135">
<path style="stroke: none; stroke-width: 1; stroke-dasharray: none; stroke-linecap: butt; stroke-dashoffset: 0; stroke-linejoin: miter; stroke-miterlimit: 4; is-custom-font: none; font-file-url: none; fill: rgb(68,79,86); fill-rule: nonzero; opacity: 0.67;" transform=" translate(-101.75, -22.4)" d="m 105.5 15.8 c -1.9 0 -3.3 0.7 -4.2 1.8 v -1.5 h -3.3 v 12.9 h 3.3 v -6.5 c 0 -2.4 1.8 -3.8 4.2 -3.5 z" stroke-linecap="round"/>
</g>
		<g transform="matrix(3.8436 0 0 3.8436 26.5262 1.5372)" id="855875">
<path style="stroke: none; stroke-width: 1; stroke-dasharray: none; stroke-linecap: butt; stroke-dashoffset: 0; stroke-linejoin: miter; stroke-miterlimit: 4; is-custom-font: none; font-file-url: none; fill: rgb(68,79,86); fill-rule: nonzero; opacity: 0.67;" transform=" translate(-111.9014, -22.5)" d="m 112.2 15.7 c -4.1 0 -6.9 3 -6.9 6.8 s 2.7 6.8 6.9 6.8 c 2.9 0 5.2 -1.5 6 -4.1 h -3.3 c -0.4 0.7 -1.5 1.3 -2.7 1.3 c -1.7 0 -3.1 -0.9 -3.5 -2.7 h 9.7 c 0.1 -0.4 0.1 -0.9 0.1 -1.4 c 0.1 -3.6 -2.5 -6.7 -6.3 -6.7 z m -3.4 5.6 c 0.4 -1.6 1.6 -2.6 3.4 -2.6 c 1.4 0 2.7 0.7 3.1 2.6 z" stroke-linecap="round"/>
</g>
		<g transform="matrix(3.8436 0 0 3.8436 81.4847 1.5372)" id="761412">
<path style="stroke: none; stroke-width: 1; stroke-dasharray: none; stroke-linecap: butt; stroke-dashoffset: 0; stroke-linejoin: miter; stroke-miterlimit: 4; is-custom-font: none; font-file-url: none; fill: rgb(68,79,86); fill-rule: nonzero; opacity: 0.67;" transform=" translate(-126.2, -22.5)" d="m 129.8 17.6 c -0.9 -1.2 -2.3 -1.9 -4.2 -1.9 c -3.4 0 -6.3 3 -6.3 6.8 s 2.8 6.8 6.3 6.8 c 1.9 0 3.3 -0.7 4.2 -1.9 v 1.6 h 3.3 v -12.9 h -3.3 z m -3.5 8.6 c -2 0 -3.6 -1.5 -3.6 -3.6 c 0 -2.2 1.5 -3.6 3.6 -3.6 s 3.6 1.5 3.6 3.6 c -0.1 2.1 -1.6 3.6 -3.6 3.6 z" stroke-linecap="round"/>
</g>
		<g transform="matrix(3.8436 0 0 3.8436 138.7548 -9.4172)" id="198151">
<path style="stroke: none; stroke-width: 1; stroke-dasharray: none; stroke-linecap: butt; stroke-dashoffset: 0; stroke-linejoin: miter; stroke-miterlimit: 4; is-custom-font: none; font-file-url: none; fill: rgb(68,79,86); fill-rule: nonzero; opacity: 0.67;" transform=" translate(-141.1, -19.65)" d="m 144.7 17.6 c -0.9 -1.2 -2.3 -1.9 -4.2 -1.9 c -3.4 0 -6.3 3 -6.3 6.8 s 2.8 6.8 6.3 6.8 c 1.9 0 3.3 -0.7 4.2 -1.9 v 1.6 h 3.3 v -19 h -3.3 z m -3.6 8.6 c -2 0 -3.6 -1.5 -3.6 -3.6 c 0 -2.2 1.5 -3.6 3.6 -3.6 s 3.6 1.5 3.6 3.6 s -1.5 3.6 -3.6 3.6 z" stroke-linecap="round"/>
</g>
		<g transform="matrix(3.8436 0 0 3.8436 194.5075 1.5372)" id="495754">
<path style="stroke: none; stroke-width: 1; stroke-dasharray: none; stroke-linecap: butt; stroke-dashoffset: 0; stroke-linejoin: miter; stroke-miterlimit: 4; is-custom-font: none; font-file-url: none; fill: rgb(68,79,86); fill-rule: nonzero; opacity: 0.67;" transform=" translate(-155.6052, -22.5)" d="m 155.9 15.7 c -4.1 0 -6.9 3 -6.9 6.8 s 2.7 6.8 6.9 6.8 c 2.9 0 5.2 -1.5 6 -4.1 h -3.3 c -0.4 0.7 -1.5 1.3 -2.7 1.3 c -1.7 0 -3.1 -0.9 -3.5 -2.7 h 9.7 c 0.1 -0.4 0.1 -0.9 0.1 -1.4 c 0.2 -3.6 -2.5 -6.7 -6.3 -6.7 z m -3.4 5.6 c 0.4 -1.6 1.6 -2.6 3.4 -2.6 c 1.4 0 2.7 0.7 3.1 2.6 z" stroke-linecap="round"/>
</g>
		<g transform="matrix(3.8436 0 0 3.8436 239.2659 1.1529)" id="784571">
<path style="stroke: none; stroke-width: 1; stroke-dasharray: none; stroke-linecap: butt; stroke-dashoffset: 0; stroke-linejoin: miter; stroke-miterlimit: 4; is-custom-font: none; font-file-url: none; fill: rgb(68,79,86); fill-rule: nonzero; opacity: 0.67;" transform=" translate(-167.25, -22.4)" d="m 171 15.8 c -1.9 0 -3.3 0.7 -4.2 1.8 v -1.5 h -3.3 v 12.9 h 3.3 v -6.5 c 0 -2.4 1.8 -3.8 4.2 -3.5 z" stroke-linecap="round"/>
</g>
</g>
</g>
<g transform="matrix(1.2821 0 0 1.2821 500.0017 346.9965)" id="7449">
<g style="">
		<g transform="matrix(6.9457 0 0 6.9457 0.3474 41.327)" id="208417">
<linearGradient id="SVGID_17" gradientUnits="userSpaceOnUse" gradientTransform="matrix(-1 0 0 1 -1234 -1090)" x1="-1235.5381" y1="1132.9003" x2="-1265.3734" y2="1112.0165">
<stop offset="0%" style="stop-color:rgb(25,120,85);stop-opacity: 1"/>
<stop offset="54.97%" style="stop-color:rgb(27,196,140);stop-opacity: 1"/>
</linearGradient>
<path style="stroke: url(#SVGID_17); stroke-width: 6; stroke-dasharray: none; stroke-linecap: round; stroke-dashoffset: 0; stroke-linejoin: round; stroke-miterlimit: 4; is-custom-font: none; font-file-url: none; fill: none; fill-rule: nonzero; opacity: 1;" transform=" translate(-15.05, -30.45)" d="m 3.1 39.9 l 8.9 -6.9 h 7 c 4.4 0 8 -3.6 8 -8 v -4" stroke-linecap="round"/>
</g>
		<g transform="matrix(6.9457 0 0 6.9457 0.0001 0.0002)" id="817011">
<path style="stroke: rgb(43,196,140); stroke-width: 6; stroke-dasharray: none; stroke-linecap: round; stroke-dashoffset: 0; stroke-linejoin: round; stroke-miterlimit: 4; is-custom-font: none; font-file-url: none; fill: none; fill-rule: nonzero; opacity: 1;" transform=" translate(-15, -24.5)" d="m 27 21 v -4 c 0 -4.4 -3.6 -8 -8 -8 h -8 c -4.4 0 -8 3.6 -8 8 v 23" stroke-linecap="round"/>
</g>
</g>
</g>
</svg>